<?xml version="1.0" encoding="UTF-8"?>
<svg id="Capa_2" data-name="Capa 2" xmlns="http://www.w3.org/2000/svg" viewBox="0 0 134.65 158.16">
  <defs>
    <style>
      .cls-1 {
        fill: #e7b537;
        stroke-width: 0px;
      }
    </style>
  </defs>
  <g id="OBJECTS">
    <g>
      <path class="cls-1" d="m25.42,96.2c-1.83,0-3.47.06-5.1-.01-3.12-.15-6.33,0-9.34-.66-6.41-1.43-10.7-6.84-10.89-13.63-.2-6.89-.02-13.8,0-20.69,0-.16.09-.32.2-.67h11.73c0-.8,0-1.41,0-2.01,0-7.87-.03-15.74.03-23.61,0-.97.26-2.07.77-2.88C24,13.87,39.88,2.53,61.3.36c20.46-2.08,37.87,4.92,51.91,19.94,3.01,3.22,5.37,7.05,8.04,10.6,1.18,1.57,1.5,3.32,1.47,5.28-.09,7.24-.05,14.48-.06,21.72,0,.79,0,1.58,0,2.57h11.83c.05.69.12,1.19.12,1.69.02,6.27.07,12.54.03,18.82-.04,7.12-3.93,12.74-10.3,14.47-2.43.66-5.06.63-7.61.76-2.38.12-4.77.03-7.4.03,0,.91.03,1.63,0,2.34-.31,6.54-.02,13.17-1.09,19.58-2.3,13.77-8.75,25.4-20.37,33.55-14.04,9.85-32.6,8.33-45.59-3.76-9.13-8.5-14.71-19.13-16.25-31.55-.72-5.85-.44-11.83-.61-17.75-.02-.73,0-1.46,0-2.44Zm7.69-7.66c0,7.05-.14,13.78.03,20.5.31,12.74,4.79,23.8,13.97,32.76,11.52,11.23,27.96,11.52,39.72.67,9.85-9.09,14.18-20.71,14.7-33.85.24-5.98.05-11.97.06-17.96,0-.66,0-1.32,0-2.11,2.82,0,5.38.03,7.94,0,3.87-.06,7.76.03,11.61-.32,3.42-.32,5.78-3.32,5.8-6.74.02-3.99,0-7.98-.01-11.98,0-.43-.09-.86-.17-1.52h-11.87c0-4.34-.03-8.44.02-12.55.01-.94-.25-1.45-1.19-1.73-9.32-2.74-18.77-3.73-28.36-1.83-3.83.76-7.58,1.87-11.44,2.84,0-2.2.05-4.48-.02-6.75-.04-1.09.48-1.48,1.42-1.75,10.57-3.06,21.28-3.74,32.12-1.84,2.39.42,4.76.97,7.45,1.52,0-1.24,0-2.3,0-3.36.08-7.78.12-7.81-4.73-13.91-9.5-11.93-21.83-19.03-36.98-20.78-14.18-1.64-26.92,2.39-38.32,10.86-.34.25-.62.57-1.32,1.24h37.62v83.27h10.11v7.46h-27.83v-7.56h9.85V27.55c-1.06,0-1.96,0-2.86,0-10.32,0-20.65.15-30.96-.08-3.12-.07-5.17.84-6.67,3.47-.85,1.48-2.58,2.74-2.75,4.24-.41,3.58-.13,7.23-.13,11.13,7.01-1.83,13.87-2.99,20.91-2.95,7.12.03,14.03,1.19,20.79,3.13v8.02c-.68-.21-1.16-.35-1.64-.5-12.75-4.08-25.51-4.12-38.32-.18-1.49.46-1.93,1.12-1.89,2.62.11,3.8.04,7.6.04,11.58-3.55,0-6.9.06-10.25-.03-1.38-.04-1.78.46-1.76,1.77.05,3.82,0,7.64,0,11.46,0,3.83,2.26,6.58,6.06,7.02,2.59.3,5.23.24,7.85.27,3.75.04,7.49.01,11.43.01Z"/>
      <path class="cls-1" d="m73.94,67.15c0-2.78-.06-5.04.05-7.29.02-.43.67-.99,1.16-1.22,7.43-3.49,15.3-4.35,23.34-3.42,4.22.49,8.37,1.56,12.56,2.37v8.51c-2.39-1.63-3.66-.19-5.07,1.38-5.21,5.79-11.62,7.91-19.26,6.02-3.67-.91-6.59-3.01-9-5.84-.96-1.13-1.79-2.35-3.79-.52Zm10.32-3.66c3.8,4.5,12.17,4.28,15.08-.56-5.04-.72-10.01-.59-15.08.56Z"/>
      <path class="cls-1" d="m60.44,67.32c-.55-.21-.94-.3-1.26-.5-.92-.57-1.44-.22-2.11.55-5.13,5.96-11.57,8.03-19.2,6.09-3.83-.97-6.87-3.31-9.28-6.36-1.1-1.39-2.13-1.87-3.72-1.05-.34.17-.76.18-1.44.33,0-2.68-.04-5.23.04-7.78.01-.36.52-.9.9-1.01,11.5-3.45,22.94-3.86,34.31.66,1.38.55,1.9,1.31,1.8,2.79-.13,2.02-.03,4.06-.03,6.27Zm-10.16-3.88c-4.39-1.09-12.34-1.25-14.91-.34,3.49,4.68,11.53,4.93,14.91.34Z"/>
      <path class="cls-1" d="m82.34,123.32c-7.04,7.9-22.01,8.01-30.27.23,1.57-1.91,3.14-3.83,4.78-5.82,3.01,2.66,6.45,3.96,10.34,4.01,3.93.05,7.36-1.25,10.21-4.18,1.73,2.02,3.34,3.9,4.95,5.77Z"/>
    </g>
  </g>
</svg>