<?xml version="1.0" encoding="UTF-8"?>
<svg id="Capa_2" data-name="Capa 2" xmlns="http://www.w3.org/2000/svg" viewBox="0 0 687.13 181.73">
  <defs>
    <style>
      .cls-1 {
        fill: #fff;
        stroke-width: 0px;
      }
    </style>
  </defs>
  <g id="OBJECTS">
    <g>
      <rect class="cls-1" y="22.47" width="9.53" height="92.35"/>
      <path class="cls-1" d="m70.33,114.82H25.26V36.74h27.32c11,0,18.16,4.13,19.13,12.99,1.52,14.09-13.42,21.44-23.44,21.44h-10.69v14.33h10.63c9.93,0,13.64,20.17,22.12,29.32Z"/>
      <path class="cls-1" d="m95.89,22.47v92.35h-5.54c-13.21-11.26-16.31-33.74-33.03-33.38,16.09-3.28,30.18-11.6,30.49-29.82.23-19.07-13.96-28.21-27.38-29.15h35.46Z"/>
      <g>
        <path class="cls-1" d="m166.72,22.47v46.52c0,17.91-9.41,33.16-24.96,33.16h-.18c-15.49,0-24.96-15.79-24.96-33.16V22.47h-15.73v46.52c0,29.03,17.97,47.37,40.44,47.55h.67c22.47-.18,40.45-18.52,40.45-47.55V22.47h-15.73Z"/>
        <path class="cls-1" d="m273.24,22.47l-33.22,39.35-33.34-39.35h-15.73v92.97h15.73V45.48l33.34,39.3,33.28-39.3v69.96h15.73V22.47h-15.79Z"/>
        <path class="cls-1" d="m297.54,22.47v92.97h15.73V22.47h-15.73Z"/>
        <path class="cls-1" d="m371.02,0s-1.4,7.95-5.28,8.13c-4.62.25-5.35-8.32-12.51-8.13-7.11.18-10.75,13.48-10.75,13.48l5.4,1.88s2.43-9.05,5.77-8.93c4.01.19,5.71,8.93,11.97,9.24,7.1.3,10.99-13.61,10.99-13.61L371.02,0Zm7.41,22.47v20.52l-40.93-20.52h-15.73v92.97h15.73V39.35l40.93,21.07v55.02h15.79V22.47h-15.79Z"/>
        <path class="cls-1" d="m455.38,22.35h-16.16l-37.71,93.03h17s20.59-24.05,52.54-12.81l5.04,12.81h17l-37.71-93.03Zm-32.28,81.38l24.2-61.22,16.82,42.63c-28.76-2.25-40.37,17.42-41.02,18.59Z"/>
        <path class="cls-1" d="m557.04,22.41v39.29h-40.69V22.41h-15.97v92.97h15.97v-39.29h40.69v39.29h15.79V22.41h-15.79Z"/>
        <path class="cls-1" d="m647.17,22.47v46.52c0,17.91-9.41,33.16-24.96,33.16h-.18c-15.49,0-24.96-15.79-24.96-33.16V22.47h-15.73v46.52c0,29.03,17.97,47.37,40.44,47.55h.67c22.47-.18,40.45-18.52,40.45-47.55V22.47h-15.73Z"/>
        <path class="cls-1" d="m671.4,22.47v92.97h15.73V22.47h-15.73Z"/>
      </g>
      <g>
        <path class="cls-1" d="m226.15,148.62c-.91-2.4-2.37-4.29-4.4-5.67-2.02-1.37-4.59-2.06-7.7-2.06-2.87,0-5.35.66-7.44,1.97-2.08,1.32-3.68,3.16-4.78,5.52-1.1,2.36-1.65,5.12-1.65,8.27s.58,5.9,1.74,8.26c1.16,2.36,2.78,4.19,4.87,5.49,2.08,1.3,4.54,1.95,7.38,1.95,2.16,0,4.14-.38,5.93-1.12,1.79-.75,3.3-1.81,4.52-3.19,1.21-1.38,2-2.99,2.36-4.84h-2.25c-.55,2.16-1.75,3.89-3.6,5.19-1.85,1.3-4.17,1.95-6.96,1.95-2.32,0-4.36-.53-6.11-1.59-1.75-1.06-3.12-2.61-4.1-4.64-.99-2.02-1.52-4.47-1.6-7.34h24.73c.28-3.03-.03-5.75-.94-8.15Zm-1.12,6.67v-.53h-22.58c-.01.11-.02.23-.03.35l-.29-.35h.32c.18-2.41.73-4.47,1.65-6.2.97-1.81,2.3-3.21,3.99-4.19s3.66-1.48,5.9-1.48,4.19.46,5.84,1.36c1.66.91,2.95,2.27,3.87,4.1.86,1.72,1.31,3.85,1.33,6.41h.29l-.29.53Z"/>
        <path class="cls-1" d="m258.08,155.88l10.98-14.52h-2.48l-8.97,12.16-.71,1h-.23l-.77-1-9.15-12.16h-2.48l11.1,14.52-12.46,16h2.42l10.39-13.46.89-1.12h.23l.83,1.12,10.09,13.46h2.6l-12.28-16Z"/>
        <path class="cls-1" d="m314.36,150.07c-.61-1.95-1.48-3.61-2.62-4.96-1.14-1.36-2.5-2.4-4.08-3.13-1.57-.73-3.3-1.09-5.19-1.09-2.87,0-5.32.7-7.35,2.09-2.03,1.4-3.43,3.24-4.22,5.52h-.18l-.11-7.14h-2.01v40.37h2.18v-16.88h.12c.55,1.5,1.36,2.82,2.42,3.96s2.37,2.02,3.93,2.65c1.55.63,3.29.95,5.22.95,2.56,0,4.79-.63,6.7-1.89,1.91-1.26,3.4-3.07,4.49-5.43,1.08-2.36,1.62-5.18,1.62-8.44,0-2.44-.31-4.64-.92-6.58Zm-2.71,14.04c-.93,2.07-2.21,3.64-3.87,4.73-1.65,1.08-3.58,1.62-5.78,1.62-2.36,0-4.38-.56-6.05-1.68-1.68-1.12-2.95-2.57-3.84-4.34-.88-1.77-1.33-3.66-1.33-5.67v-4.19c0-2.01.45-3.9,1.33-5.7.89-1.79,2.16-3.23,3.84-4.33,1.67-1.1,3.69-1.66,6.05-1.66,2.2,0,4.13.55,5.78,1.63,1.66,1.08,2.94,2.64,3.87,4.69.92,2.05,1.39,4.53,1.39,7.44s-.47,5.4-1.39,7.46Z"/>
        <path class="cls-1" d="m335.35,128.85v43.03h2.18v-43.03h-2.18Z"/>
        <path class="cls-1" d="m385.02,150.21c-.69-1.92-1.65-3.59-2.89-4.98-1.24-1.4-2.74-2.47-4.49-3.22s-3.69-1.12-5.81-1.12c-2.88,0-5.4.67-7.56,2-2.16,1.34-3.85,3.2-5.05,5.58-1.2,2.38-1.8,5.13-1.8,8.24,0,2.32.35,4.43,1.04,6.34.68,1.91,1.67,3.56,2.95,4.96,1.28,1.4,2.79,2.47,4.54,3.22,1.75.74,3.71,1.12,5.88,1.12,2.83,0,5.32-.67,7.46-2.01,2.15-1.34,3.81-3.19,4.99-5.55,1.18-2.36,1.77-5.07,1.77-8.14,0-2.36-.34-4.51-1.03-6.44Zm-2.72,13.64c-1,2.04-2.41,3.62-4.22,4.72s-3.91,1.65-6.31,1.65c-1.85,0-3.53-.32-5.02-.97-1.5-.65-2.78-1.56-3.84-2.75-1.06-1.18-1.87-2.6-2.42-4.27-.55-1.68-.82-3.52-.82-5.52,0-2.84.51-5.28,1.53-7.32,1.02-2.05,2.45-3.63,4.28-4.75,1.83-1.13,3.94-1.69,6.35-1.69,1.84,0,3.51.33,4.98.98,1.48.65,2.74,1.58,3.78,2.8s1.84,2.67,2.39,4.34c.55,1.67.83,3.53.83,5.58,0,2.75-.5,5.15-1.51,7.2Z"/>
        <path class="cls-1" d="m418.81,140.98c-.32-.02-.65-.03-1-.03-2.21,0-4.19.6-5.97,1.8-1.77,1.2-2.99,2.78-3.66,4.75h-.11l-.24-6.14h-1.89v30.52h2.13v-19.84c.19-1.89.74-3.5,1.65-4.84.9-1.33,2.07-2.36,3.48-3.07,1.42-.71,2.97-1.06,4.66-1.06.32,0,.63.01.95.03.31.02.61.05.88.09v-2.13c-.27-.03-.57-.06-.88-.08Z"/>
        <path class="cls-1" d="m459.83,148.62c-.9-2.4-2.37-4.29-4.39-5.67-2.03-1.37-4.6-2.06-7.71-2.06-2.87,0-5.35.66-7.43,1.97-2.09,1.32-3.68,3.16-4.79,5.52-1.1,2.36-1.65,5.12-1.65,8.27s.58,5.9,1.74,8.26c1.16,2.36,2.79,4.19,4.87,5.49,2.09,1.3,4.55,1.95,7.38,1.95,2.16,0,4.14-.38,5.93-1.12,1.79-.75,3.3-1.81,4.52-3.19s2.01-2.99,2.36-4.84h-2.24c-.55,2.16-1.75,3.89-3.6,5.19-1.85,1.3-4.18,1.95-6.97,1.95-2.32,0-4.36-.53-6.11-1.59-1.75-1.06-3.12-2.61-4.1-4.64-.98-2.02-1.52-4.47-1.59-7.34h24.73c.27-3.03-.04-5.75-.95-8.15Zm-1.12,6.67v-.53h-22.58c-.01.11-.02.23-.03.35l-.29-.35h.32c.18-2.41.74-4.47,1.66-6.2.96-1.81,2.29-3.21,3.98-4.19,1.69-.98,3.66-1.48,5.9-1.48s4.19.46,5.85,1.36c1.65.91,2.94,2.27,3.86,4.1.87,1.71,1.31,3.86,1.33,6.41h.3l-.3.53Z"/>
        <path class="cls-1" d="m493.65,140.98c-.31-.02-.64-.03-1-.03-2.2,0-4.19.6-5.96,1.8-1.77,1.2-2.99,2.78-3.66,4.75h-.12l-.23-6.14h-1.89v30.52h2.12v-19.84c.2-1.89.75-3.5,1.65-4.84.91-1.33,2.07-2.36,3.49-3.07,1.41-.71,2.97-1.06,4.66-1.06.31,0,.63.01.94.03.32.02.61.05.89.09v-2.13c-.28-.03-.57-.06-.89-.08Z"/>
      </g>
      <rect class="cls-1" x="112.5" y="140.93" width="27.3" height="15.12" rx="7.56" ry="7.56"/>
      <rect class="cls-1" x="112.5" y="158.89" width="27.3" height="15.12" rx="7.56" ry="7.56"/>
      <rect class="cls-1" x="76.2" y="140.93" width="27.3" height="15.12" rx="7.56" ry="7.56"/>
      <rect class="cls-1" x="76.2" y="158.89" width="27.3" height="15.12" rx="7.56" ry="7.56"/>
      <rect class="cls-1" x="146.95" y="140.93" width="27.3" height="15.12" rx="7.56" ry="7.56"/>
      <rect class="cls-1" x="146.95" y="158.89" width="27.3" height="15.12" rx="7.56" ry="7.56"/>
      <rect class="cls-1" x="557.12" y="140.93" width="27.3" height="15.12" rx="7.56" ry="7.56"/>
      <rect class="cls-1" x="557.12" y="158.89" width="27.3" height="15.12" rx="7.56" ry="7.56"/>
      <rect class="cls-1" x="520.81" y="140.93" width="27.3" height="15.12" rx="7.56" ry="7.56"/>
      <rect class="cls-1" x="520.81" y="158.89" width="27.3" height="15.12" rx="7.56" ry="7.56"/>
      <rect class="cls-1" x="591.56" y="140.93" width="27.3" height="15.12" rx="7.56" ry="7.56"/>
      <rect class="cls-1" x="591.56" y="158.89" width="27.3" height="15.12" rx="7.56" ry="7.56"/>
    </g>
  </g>
</svg>