<?xml version="1.0" encoding="UTF-8"?>
<svg id="Capa_2" data-name="Capa 2" xmlns="http://www.w3.org/2000/svg" viewBox="0 0 316.77 86.23">
  <defs>
    <style>
      .cls-1 {
        fill: #e7b537;
      }

      .cls-1, .cls-2, .cls-3, .cls-4 {
        stroke-width: 0px;
      }

      .cls-5 {
        letter-spacing: .2em;
      }

      .cls-6 {
        letter-spacing: .2em;
      }

      .cls-2, .cls-7 {
        fill: #180063;
      }

      .cls-3 {
        fill: #dd931d;
      }

      .cls-7 {
        font-family: MonaSans-ExtraLight, 'Mona Sans';
        font-size: 27.41px;
        font-variation-settings: 'wdth' 100, 'wght' 200;
        font-weight: 200;
      }

      .cls-4 {
        fill: #fff;
      }

      .cls-8 {
        letter-spacing: .2em;
      }

      .cls-9 {
        letter-spacing: .19em;
      }

      .cls-10 {
        letter-spacing: .17em;
      }
    </style>
  </defs>
  <g id="OBJECTS">
    <g>
      <rect class="cls-3" y="10.44" width="44.53" height="42.89"/>
      <g>
        <path class="cls-4" d="m42.27,53.59h-9.36c-4.12-4.12-5.81-13.88-10.52-13.88h-4.94v-6.66h4.96c4.65,0,11.59-3.41,10.89-9.96-.45-4.12-3.78-6.04-8.88-6.04h-12.69v36.52h-7.3V10.38h23.04v.03c6.4.2,13.42,4.43,13.31,13.57-.14,8.46-6.68,12.32-14.16,13.85,7.9-.17,9.25,10.63,15.65,15.76Z"/>
        <path class="cls-2" d="m63.48,47.44h.03c7.22,0,11.59-7.08,11.59-15.4V10.44h7.3v21.6c0,13.48-8.35,22-18.78,22.08h-.31c-10.43-.08-18.78-8.6-18.78-22.08V10.44h7.3v21.6c0,8.07,4.4,15.4,11.59,15.4h.06Z"/>
        <path class="cls-2" d="m93.66,21.12v32.49h-7.3V10.44h7.3l15.48,18.27,15.43-18.27h7.33v43.18h-7.3V21.12l-15.45,18.25-15.48-18.25Z"/>
        <path class="cls-2" d="m143.16,10.44v43.18h-7.3V10.44h7.3Z"/>
        <path class="cls-2" d="m173.42,28.06l-19.01-9.79v35.34h-7.3V10.44h7.3l19.01,9.53v-9.53h7.33v43.18h-7.33v-25.55Zm-16.7-21.8S158.41.09,161.71,0c3.33-.08,3.67,3.89,5.81,3.78,1.8-.08,2.45-3.78,2.45-3.78l2.59.96s-1.8,6.46-5.1,6.32c-2.9-.14-3.69-4.2-5.56-4.29-1.55-.06-2.68,4.15-2.68,4.15l-2.51-.87Z"/>
        <path class="cls-2" d="m216.43,47.63c-14.83-5.22-24.39,5.95-24.39,5.95h-7.9l17.51-43.21h7.5l17.51,43.21h-7.9l-2.34-5.95Zm-3.22-8.09l-7.81-19.8-11.25,28.46s5.3-9.73,19.06-8.66Z"/>
        <path class="cls-2" d="m237.47,35.34v18.25h-7.42V10.41h7.42v18.25h18.9V10.41h7.33v43.18h-7.33v-18.25h-18.9Z"/>
        <path class="cls-2" d="m286.59,47.44h.03c7.22,0,11.59-7.08,11.59-15.4V10.44h7.3v21.6c0,13.48-8.35,22-18.78,22.08h-.31c-10.43-.08-18.78-8.6-18.78-22.08V10.44h7.3v21.6c0,8.07,4.4,15.4,11.59,15.4h.06Z"/>
        <path class="cls-2" d="m316.77,10.44v43.18h-7.3V10.44h7.3Z"/>
      </g>
      <text class="cls-7" transform="translate(89.19 79.82)"><tspan class="cls-9" x="0" y="0">e</tspan><tspan class="cls-8" x="20.7" y="0">xplo</tspan><tspan class="cls-10" x="94.68" y="0">r</tspan><tspan class="cls-5" x="108.52" y="0">e</tspan><tspan class="cls-6" x="129.43" y="0">r</tspan></text>
      <rect class="cls-1" x="49.92" y="65.45" width="12.68" height="7.02" rx="3.51" ry="3.51"/>
      <rect class="cls-1" x="49.92" y="73.79" width="12.68" height="7.02" rx="3.51" ry="3.51"/>
      <rect class="cls-1" x="33.06" y="65.45" width="12.68" height="7.02" rx="3.51" ry="3.51"/>
      <rect class="cls-1" x="33.06" y="73.79" width="12.68" height="7.02" rx="3.51" ry="3.51"/>
      <rect class="cls-1" x="65.92" y="65.45" width="12.68" height="7.02" rx="3.51" ry="3.51"/>
      <rect class="cls-1" x="65.92" y="73.79" width="12.68" height="7.02" rx="3.51" ry="3.51"/>
      <rect class="cls-1" x="256.4" y="65.45" width="12.68" height="7.02" rx="3.51" ry="3.51"/>
      <rect class="cls-1" x="256.4" y="73.79" width="12.68" height="7.02" rx="3.51" ry="3.51"/>
      <rect class="cls-1" x="239.53" y="65.45" width="12.68" height="7.02" rx="3.51" ry="3.51"/>
      <rect class="cls-1" x="239.53" y="73.79" width="12.68" height="7.02" rx="3.51" ry="3.51"/>
      <rect class="cls-1" x="272.39" y="65.45" width="12.68" height="7.02" rx="3.51" ry="3.51"/>
      <rect class="cls-1" x="272.39" y="73.79" width="12.68" height="7.02" rx="3.51" ry="3.51"/>
    </g>
  </g>
</svg>