<?xml version="1.0" encoding="UTF-8"?>
<svg id="Capa_2" data-name="Capa 2" xmlns="http://www.w3.org/2000/svg" viewBox="0 0 106.85 258.42">
  <defs>
    <style>
      .cls-1 {
        fill: #e7b537;
        stroke-width: 0px;
      }
    </style>
  </defs>
  <g id="OBJECTS">
    <path class="cls-1" d="m83.63,67.08c-2.2-1.73-.9-5.46-.94-8.34-.13-8.08.09-16.14-9.7-20.1-4.3-1.74-8.95-4.54-9.79-10.45-.37-2.57-2.84-3.84-5.32-4.04-9.76-.79-16.39-5.98-20.92-14.34-.37-.68-.92-1.39-1.57-1.75-4.56-2.51-8.28-10.9-13.24-7.04-4.57,3.56-4.82,11.93-1.93,18.1,2.28,4.88,2.49,8.3-1.17,12.74-4.2,5.11-3.68,12.99-9.94,17.46-2.33,1.66.6,3.99,2.35,5.63q9.78,9.13,1.09,18.93c-8.57,9.67-8.66,9.71-2.86,21.06,2.37,4.63,2.61,8.28.59,13.79-2.49,6.79-4.5,14.52-4.89,21.77-.77,14.41-.95,28.93.32,43.42.31,3.55,3.12,6.51,3.16,10.4.12.58.17,1.17.11,1.77-.42,3.96-1.01,8.03-2.92,11.54.35,2.29-1.08,4.97-4.05,9.01-3.27,4.45-2.67,8.38,2.63,10.93.94.45,2.02.6,3.01.95,12.48,4.42,14.02,8.29,6.14,18.59-3.35,4.39-2.74,7.47.28,11.06,1.7,2.01,3.75,3.75,5.23,5.91,3.83,5.58,7.76,5.86,11.9.54,4.93-6.34,13.28-6.72,19.48-11.17.35-.25.69-.38,1.03-.45.57-.78,1.2-1.53,1.92-2.18,1.38-1.26,2.94-2.13,4.6-2.79.09-2.6,2.42-4.64,5.81-6.43,2.63-1.39,3.54-3.4,3.56-6.41.09-11.57,3.8-21.88,11.72-30.46,4.21-4.56,3.95-10.61,3.86-15.71-.12-7.46,2.45-13.09,6.87-18.42,2.94-3.54,4.44-7.5,4.49-12.18.09-8.36,2.74-15.95,7.43-22.89,7.56-11.2,5.9-22.36-2.07-32.13-6.63-8.12-7.58-19.48-16.27-26.31Z"/>
  </g>
</svg>